<?xml version="1.0" encoding="UTF-8"?> <!-- Generator: Adobe Illustrator 25.2.3, SVG Export Plug-In . SVG Version: 6.00 Build 0) --> <svg xmlns="http://www.w3.org/2000/svg" xmlns:xlink="http://www.w3.org/1999/xlink" version="1.1" id="Layer_1" x="0px" y="0px" viewBox="0 0 322.4 186.1" style="enable-background:new 0 0 322.4 186.1;" xml:space="preserve"> <style type="text/css"> .st0{clip-path:url(#SVGID_2_);} </style> <g> <defs> <rect id="SVGID_1_" width="322.4" height="186.1"></rect> </defs> <clipPath id="SVGID_2_"> <use xlink:href="#SVGID_1_" style="overflow:visible;"></use> </clipPath> <g class="st0"> <path d="M27.4,18c-1.1,1.8-3.4,2.4-5.2,1.4L0,6.6v48.8L37.1,34c3-1.7,5.4-3.4,7.1-6.3s1.9-5.9,1.9-9.3v-42.8L3.8,0L26,12.8 C27.8,13.9,28.4,16.2,27.4,18z"></path> <path d="M18.7,111.1c-1-1.8-0.4-4.2,1.4-5.2l22.2-12.8L0,68.7v42.8c0,3.4,0.2,6.3,1.9,9.3s4.1,4.6,7.1,6.3l37.1,21.4V99.7 l-22.2,12.8C22.1,113.5,19.8,112.9,18.7,111.1z"></path> <path d="M81.1,111.1c-1.1,1.8-3.4,2.4-5.2,1.4c0,0,0,0,0,0L53.8,99.7v48.8l37.1-21.4c3-1.7,5.4-3.4,7.1-6.3s1.9-5.9,1.9-9.3V68.7 L57.6,93.1l22.2,12.8C81.6,106.9,82.2,109.3,81.1,111.1z"></path> <path d="M49.9,57c2.1,0,3.8,1.7,3.8,3.8c0,0,0,0,0,0v25.6L96,62L58.9,40.6c-3-1.7-5.6-3-9-3s-6.1,1.3-9,3L3.8,62l42.3,24.5V60.8 C46.1,58.7,47.8,57,49.9,57C49.9,57,49.9,57,49.9,57z"></path> <path d="M72.5,18c-1.1-1.8-0.4-4.2,1.4-5.2c0,0,0,0,0,0L96,0L53.8-24.4v42.8c0,3.4,0.2,6.4,1.9,9.3s4.1,4.6,7.1,6.3l37.1,21.4V6.6 L77.7,19.4C75.8,20.5,73.5,19.8,72.5,18C72.5,18,72.5,18,72.5,18z"></path> <path d="M134.9,18c-1.1,1.8-3.4,2.4-5.2,1.4L107.5,6.6v48.8L144.6,34c2.9-1.7,5.4-3.4,7.1-6.3s1.9-5.9,1.9-9.3v-42.8L111.3,0 l22.2,12.8C135.3,13.8,135.9,16.2,134.9,18C134.9,18,134.9,18,134.9,18z"></path> <path d="M179.9,18c-1.1-1.8-0.4-4.1,1.4-5.2c0,0,0,0,0,0L203.5,0l-42.3-24.4c0,35.7,0,35.1,0,42.8c0,3.4,0.2,6.4,1.9,9.3 s4.1,4.6,7.1,6.3l37.1,21.4V6.6l-22.2,12.8C183.3,20.5,181,19.8,179.9,18C179.9,18,179.9,18,179.9,18z"></path> <path d="M242.3,18c-1.1,1.8-3.4,2.4-5.2,1.4L214.9,6.6v48.8L252,34c2.9-1.7,5.4-3.4,7.1-6.3s1.9-5.9,1.9-9.3v-42.8L218.8,0 l22.2,12.8C242.7,13.9,243.4,16.2,242.3,18z"></path> <path d="M126.2,111.1c-1.1-1.8-0.4-4.2,1.4-5.2c0,0,0,0,0,0l22.2-12.8l-42.3-24.4v42.8c0,3.4,0.2,6.3,1.9,9.3s4.1,4.6,7.1,6.3 l37.1,21.4V99.7l-22.2,12.8C129.6,113.5,127.2,112.9,126.2,111.1C126.2,111.1,126.2,111.1,126.2,111.1z"></path> <path d="M188.6,111.1c-1.1,1.8-3.4,2.4-5.2,1.4c0,0,0,0,0,0l-22.2-12.8v48.8l37.1-21.4c2.9-1.7,5.4-3.4,7.1-6.3s1.9-5.9,1.9-9.3 V68.7L165,93.1l22.2,12.8C189,106.9,189.6,109.2,188.6,111.1C188.6,111.1,188.6,111.1,188.6,111.1z"></path> <path d="M157.4,57c2.1,0,3.8,1.7,3.8,3.8c0,0,0,0,0,0v25.6L203.5,62l-37.1-21.4c-3-1.7-5.6-3-9-3s-6.1,1.3-9,3L111.3,62l42.3,24.4 V60.8C153.6,58.7,155.2,57,157.4,57C157.4,57,157.4,57,157.4,57z"></path> <path d="M233.6,111.1c-1.1-1.8-0.4-4.1,1.4-5.2c0,0,0,0,0,0l22.2-12.8l-42.3-24.4c0,35.7,0,35.1,0,42.8c0,3.4,0.2,6.3,1.9,9.3 s4.1,4.6,7.1,6.3l37.1,21.4V99.7l-22.2,12.8C237,113.5,234.7,112.9,233.6,111.1z"></path> <path d="M296,111.1c-1.1,1.8-3.4,2.4-5.2,1.4c0,0,0,0,0,0l-22.2-12.8v48.8l37.1-21.4c2.9-1.7,5.4-3.4,7.1-6.3s1.9-5.9,1.9-9.3 V68.7l-42.3,24.4l22.2,12.8C296.5,106.9,297.1,109.2,296,111.1C296.1,111.1,296.1,111.1,296,111.1z"></path> <path d="M264.9,57c2.1,0,3.8,1.7,3.8,3.8v25.6L311,62l-37.1-21.4c-2.9-1.7-5.6-3-9-3s-6.1,1.3-9,3L218.8,62L261,86.5V60.8 c0-2.1,1.7-3.8,3.7-3.8C264.8,57,264.8,57,264.9,57z"></path> <path d="M27.4,204.1c-1.1,1.8-3.4,2.4-5.2,1.4c0,0,0,0,0,0L0,192.7v48.8l37.1-21.4c2.9-1.7,5.4-3.4,7.1-6.3s1.9-5.9,1.9-9.3v-42.8 L3.8,186.1L26,198.9C27.8,200,28.5,202.3,27.4,204.1z"></path> <path d="M-3.8,150.1c2.1,0,3.8,1.7,3.8,3.8v25.6l42.3-24.4L5.2,133.7c-2.9-1.7-5.6-3-9-3s-6.1,1.3-9,3l-37.1,21.4l42.3,24.4v-25.6 C-7.6,151.8-5.9,150.1-3.8,150.1C-3.8,150.1-3.8,150.1-3.8,150.1z"></path> <path d="M72.5,204.1c-1-1.8-0.4-4.2,1.4-5.2L96,186.1l-42.2-24.4v42.8c0,3.4,0.2,6.4,1.9,9.3s4.1,4.6,7.1,6.3l37.1,21.4v-48.8 l-22.2,12.8C75.8,206.6,73.5,206,72.5,204.1C72.5,204.1,72.5,204.1,72.5,204.1z"></path> <path d="M134.9,204.1c-1.1,1.8-3.4,2.4-5.2,1.4c0,0,0,0,0,0l-22.2-12.8v48.8l37.1-21.4c3-1.7,5.4-3.4,7.1-6.3s1.9-5.9,1.9-9.3 v-42.8l-42.3,24.4l22.2,12.8C135.3,200,135.9,202.3,134.9,204.1z"></path> <path d="M103.7,150.1c2.1,0,3.8,1.7,3.8,3.8c0,0,0,0,0,0v25.6l42.3-24.4l-37.1-21.4c-3-1.7-5.6-3-9-3s-6.1,1.3-9,3l-37.1,21.4 l42.3,24.4v-25.6C99.9,151.8,101.6,150.1,103.7,150.1z"></path> <path d="M179.9,204.1c-1.1-1.8-0.4-4.2,1.4-5.2c0,0,0,0,0,0l22.2-12.8l-42.3-24.4v42.8c0,3.4,0.2,6.4,1.9,9.3s4.1,4.6,7.1,6.3 l37.1,21.4v-48.8l-22.2,12.8C183.3,206.6,181,206,179.9,204.1C179.9,204.1,179.9,204.1,179.9,204.1z"></path> <path d="M242.3,204.1c-1.1,1.8-3.4,2.4-5.2,1.4c0,0,0,0,0,0l-22.2-12.8v48.8l37.1-21.4c2.9-1.7,5.4-3.4,7.1-6.3s1.9-5.9,1.9-9.3 v-42.8l-42.3,24.4l22.2,12.8C242.7,200,243.4,202.3,242.3,204.1C242.3,204.1,242.3,204.1,242.3,204.1z"></path> <path d="M211.1,150.1c2.1,0,3.8,1.7,3.8,3.8c0,0,0,0,0,0v25.6l42.3-24.4l-37.1-21.4c-2.9-1.7-5.6-3-9-3s-6.1,1.3-9,3L165,155.1 l42.3,24.4v-25.6C207.3,151.8,209,150.1,211.1,150.1C211.1,150.1,211.1,150.1,211.1,150.1z"></path> <path d="M287.4,18c-1.1-1.8-0.4-4.2,1.4-5.2c0,0,0,0,0,0L311,0l-42.3-24.4v42.8c0,3.4,0.2,6.4,1.9,9.3s4.1,4.6,7.1,6.3l37.1,21.4 V6.6l-22.2,12.8C290.8,20.5,288.4,19.8,287.4,18C287.4,18,287.4,18,287.4,18z"></path> <path d="M287.4,204.1c-1.1-1.8-0.4-4.1,1.4-5.2c0,0,0,0,0,0l22.2-12.8l-42.3-24.4c0,35.7,0,35.1,0,42.8c0,3.4,0.2,6.4,1.9,9.3 s4.1,4.6,7.1,6.3l37.1,21.4v-48.8l-22.2,12.8C290.8,206.6,288.5,206,287.4,204.1C287.4,204.2,287.4,204.2,287.4,204.1z"></path> <path d="M318.6,150.1c2.1,0,3.8,1.7,3.8,3.8v25.6l42.3-24.4l-37.1-21.4c-2.9-1.7-5.6-3-9-3s-6.1,1.3-9,3l-37.1,21.4l42.3,24.4 v-25.6C314.8,151.8,316.5,150.1,318.6,150.1C318.6,150.1,318.6,150.1,318.6,150.1z"></path> </g> </g> </svg> 